HIERARCHY
ROOT hip
{
	OFFSET 0.000000 0.000000 0.000000 
	CHANNELS 6 Xposition Yposition Zposition Xrotation Zrotation Yrotation
	JOINT abdomen
	{
		OFFSET 0.000000 3.402643 0.000000 
		CHANNELS 3 Xrotation Zrotation Yrotation
		JOINT chest
		{
			OFFSET 0.000000 8.438565 -0.680529 
			CHANNELS 3 Xrotation Zrotation Yrotation
			JOINT neck
			{
				OFFSET 0.000000 10.207942 -0.272212 
				CHANNELS 3 Xrotation Zrotation Yrotation
				JOINT head
				{
					OFFSET 0.000000 3.130431 0.000000 
					CHANNELS 3 Xrotation Zrotation Yrotation
					End Site
					{
						OFFSET 0.000000 3.130435 0.000000 
					}
				}
			}
			JOINT lCollar
			{
				OFFSET 3.470700 6.669187 -0.816635 
				CHANNELS 3 Yrotation Zrotation Xrotation
				JOINT lShldr
				{
					OFFSET 3.198488 0.000000 0.000000 
					CHANNELS 3 Zrotation Yrotation Xrotation
					JOINT lForeArm
					{
						OFFSET 10.139888 0.000000 0.000000 
						CHANNELS 3 Yrotation Zrotation Xrotation
						JOINT lHand
						{
							OFFSET 8.370511 0.000000 0.000000 
							CHANNELS 3 Zrotation Yrotation Xrotation
							End Site
							{
								OFFSET 4.083176 0.000000 0.000000 
							}
						}
					}
				}
			}
			JOINT rCollar
			{
				OFFSET -3.470700 6.669187 -0.816635 
				CHANNELS 3 Yrotation Zrotation Xrotation
				JOINT rShldr
				{
					OFFSET -3.198488 0.000000 0.000000 
					CHANNELS 3 Zrotation Yrotation Xrotation
					JOINT rForeArm
					{
						OFFSET -10.139888 0.000000 0.000000 
						CHANNELS 3 Yrotation Zrotation Xrotation
						JOINT rHand
						{
							OFFSET -8.370511 0.000000 0.000000 
							CHANNELS 3 Zrotation Yrotation Xrotation
							End Site
							{
								OFFSET -4.083176 0.000000 0.000000 
							}
						}
					}
				}
			}
		}
	}
	JOINT lThigh
	{
		OFFSET 5.308129 -1.633274 1.361059 
		CHANNELS 3 Xrotation Zrotation Yrotation
		JOINT lShin
		{
			OFFSET -2.041588 -20.007561 0.000000 
			CHANNELS 3 Xrotation Zrotation Yrotation
			JOINT lFoot
			{
				OFFSET 0.000000 -19.190928 -1.224953 
				CHANNELS 3 Xrotation Yrotation Zrotation
				End Site
				{
					OFFSET 0.000000 -2.449906 4.627600 
				}
			}
		}
	}
	JOINT rThigh
	{
		OFFSET -5.308129 -1.633274 1.361059 
		CHANNELS 3 Xrotation Zrotation Yrotation
		JOINT rShin
		{
			OFFSET 2.041588 -20.007561 0.000000 
			CHANNELS 3 Xrotation Zrotation Yrotation
			JOINT rFoot
			{
				OFFSET 0.000000 -19.190928 -1.224953 
				CHANNELS 3 Xrotation Yrotation Zrotation
				End Site
				{
					OFFSET 0.000000 -2.449906 4.627600 
				}
			}
		}
	}
}
MOTION
Frames: 8
Frame Time: 0.033333
17.467342 45.864826 -41.584091 15.563752 13.443447 125.600021 0.000000 0.000000 0.000000 15.881510 -1.023831 -8.465227 -8.603516 0.000000 0.000000 10.090106 -9.811214 -37.569118 -2.957607 -0.090307 -0.002318 -72.493095 -7.580196 -0.770687 -4.556945 -10.725699 6.850457 -20.937948 -3.482511 38.015919 2.957607 0.090307 -0.002334 53.058773 -3.333127 -18.725878 47.578327 22.344057 4.079424 -3.384463 35.216488 23.812689 20.112675 22.165953 25.749895 19.102180 -2.899842 0.187625 18.143946 1.005056 -6.046272 15.132211 -19.989006 -38.001827 10.627115 4.347096 2.045287 -4.511378 -11.745578 0.115999 
16.798630 45.756733 -41.643921 15.888165 12.875753 129.703583 0.000000 0.000000 0.000000 15.765772 -2.368466 -9.946038 -8.603516 0.000000 0.000000 12.422332 -9.208376 -38.650593 -2.957607 -0.090307 -0.002318 -70.745789 -5.725092 -1.006333 -5.082581 -11.062639 7.341052 -20.799091 -3.536466 37.242924 2.957607 0.090307 -0.002334 44.873142 -5.379169 -25.687386 55.911819 24.725971 1.817344 -3.879391 34.500923 21.660295 19.565365 22.791615 26.737291 18.985756 -2.737101 0.725775 18.115154 2.234453 -6.709354 15.894017 -20.418928 -39.310192 10.568917 4.503192 1.506746 -4.167758 -13.806816 -0.261242 
15.876797 45.645699 -41.786114 16.047794 12.234577 133.811981 0.000000 0.000000 0.000000 16.315456 -3.215008 -11.028550 -8.603516 0.000000 0.000000 15.277670 -8.439349 -39.588200 -2.957607 -0.090307 -0.002318 -68.857483 -2.858005 -1.657164 -5.443456 -11.285032 8.037854 -20.579657 -3.656056 35.692951 2.957607 0.090307 -0.002334 32.175270 -14.461341 -34.458683 64.220871 26.969707 -1.009643 -5.606966 33.502674 20.297752 18.419075 22.955536 27.645441 18.926737 -2.571016 1.221597 16.770390 3.137591 -7.417024 16.499290 -20.906820 -40.427921 10.503757 4.582521 1.137034 -4.232648 -14.837214 -0.722410 
14.806991 45.543274 -41.965359 16.087612 11.573053 137.570389 0.000000 0.000000 0.000000 17.526953 -3.650898 -11.572148 -8.603516 0.000000 0.000000 17.965815 -7.690412 -40.082684 -2.957607 -0.090307 -0.002318 -67.113792 0.243768 -2.892448 -5.519216 -11.178542 8.594349 -19.975521 -4.133596 33.790577 2.957607 0.090307 -0.002334 21.583649 -24.216957 -44.153721 72.653702 27.722227 -4.549049 -8.772300 32.681702 19.467430 16.784819 22.791815 27.840168 18.983038 -2.479529 1.368389 14.824700 4.551465 -8.563749 16.728930 -21.412708 -40.792751 10.299097 4.492640 1.056077 -4.448888 -15.397939 -0.961307 
13.611984 45.438011 -42.215755 15.989370 10.900574 140.934952 0.000000 0.000000 0.000000 19.320593 -3.760647 -11.327431 -8.603516 0.000000 0.000000 20.012798 -7.190591 -40.051334 -2.957607 -0.090307 -0.002318 -65.963585 3.167825 -4.625581 -4.964137 -10.708231 8.869744 -19.051277 -4.765324 32.712978 2.957607 0.090307 -0.002334 15.744384 -31.480093 -56.306374 78.842209 28.639093 -7.838992 -13.729445 32.775078 18.842493 15.151308 22.184572 27.634678 19.195848 -2.567041 1.546505 12.095832 5.770103 -9.684094 16.765545 -21.923546 -40.181160 10.044729 4.357877 0.783436 -5.056873 -14.452834 -0.824135 
12.342878 45.355530 -42.508869 15.876427 10.275504 143.871597 0.000000 0.000000 0.000000 21.203266 -3.879418 -10.371193 -8.603516 0.000000 0.000000 21.639277 -6.908923 -39.329853 -2.957607 -0.090307 -0.002318 -65.561958 5.968858 -5.933437 -3.828135 -9.790185 8.987329 -18.535830 -4.384994 33.025639 2.957607 0.090307 -0.002334 15.391289 -33.139114 -69.405785 82.283478 28.280849 -8.909636 -12.614261 28.091379 21.093876 13.483392 20.965330 26.908916 19.282383 -2.654714 1.517995 8.900961 6.956958 -10.481678 16.509350 -22.586542 -38.902710 9.876274 4.044753 1.168511 -6.169271 -12.649990 -0.398534 
11.071054 45.290039 -42.858868 15.737986 9.688801 146.534378 0.000000 0.000000 0.000000 22.924227 -4.129681 -8.990940 -8.603516 0.000000 0.000000 22.644506 -6.955937 -38.131523 -2.957607 -0.090307 -0.002318 -65.936150 8.463972 -5.922679 -2.276945 -8.802948 8.893693 -18.201006 -3.903536 33.507282 2.957607 0.090307 -0.002334 16.163416 -29.660379 -74.388908 79.142593 26.031025 -7.313741 -10.808945 24.210056 23.820726 11.944946 19.184511 25.877827 19.305599 -2.883471 1.102230 5.467962 8.009397 -10.215508 16.102688 -23.291393 -36.945854 9.753104 3.700322 1.301882 -7.326357 -9.931958 0.284809 
9.944370 45.247326 -43.214523 15.729714 9.302958 149.003769 0.000000 0.000000 0.000000 24.322432 -4.344336 -7.224899 -8.603516 0.000000 0.000000 22.548140 -7.338300 -37.119350 -2.957607 -0.090307 -0.002318 -66.791885 9.697873 -4.925809 -0.585909 -7.923529 8.383264 -18.226900 -3.210659 34.427147 2.957607 0.090307 -0.002334 19.337610 -30.401407 -74.657707 70.570549 24.186628 -3.247651 -7.873460 20.265619 26.990944 11.037673 17.797653 25.502720 19.244196 -3.035929 0.557244 2.414543 7.340511 -9.053226 15.970157 -23.336832 -34.519585 9.625584 3.245652 1.506814 -8.318985 -6.384446 1.435220 
